<?xml version="1.0" encoding="UTF-8" standalone="no" ?>
<!DOCTYPE svg PUBLIC "-//W3C//DTD SVG 1.1//EN" "http://www.w3.org/Graphics/SVG/1.1/DTD/svg11.dtd">
<svg
    xmlns="http://www.w3.org/2000/svg" xmlns:xlink="http://www.w3.org/1999/xlink"
    version="1.1"
    width="1080"
    height="1080"
    viewBox="0 0 1080 1080"
    xml:space="preserve"
>

<g transform="matrix(1 0 0 1 540 540)" id="3e1eb2f0-7b68-4e98-b935-f35369b13095"  >
<rect style="stroke: none; stroke-width: 1; stroke-dasharray: none; stroke-linecap: butt; stroke-dashoffset: 0; stroke-linejoin: miter; stroke-miterlimit: 4; fill: rgb(0,0,0); fill-rule: nonzero; opacity: 1;" vector-effect="non-scaling-stroke"  x="-540" y="-540" rx="0" ry="0" width="1080" height="1080" />
</g>
<g transform="matrix(28.6 0 0 27.6 540 540)" id="SvgjsG1007"  >
<path style="stroke: none; stroke-width: 1; stroke-dasharray: none; stroke-linecap: butt; stroke-dashoffset: 0; stroke-linejoin: miter; stroke-miterlimit: 4; fill: rgb(255,255,255); fill-rule: nonzero; opacity: 1;"  transform=" translate(-15.2, -25.88)" d="M 29.2 39.76 L 29.2 39.99996 L 17.2 39.99996 L 17.2 39.75996 L 20.96 39.75996 L 11.600000000000001 27.27996 L 9.320000000000002 31.91996 L 9.320000000000002 39.75996 L 13.200000000000003 39.75996 L 13.200000000000003 39.99996 L 1.2000000000000028 39.99996 L 1.2000000000000028 39.75996 L 5.080000000000003 39.75996 L 5.080000000000003 11.999959999999998 L 1.2000000000000028 11.999959999999998 L 1.2000000000000028 11.759959999999998 L 13.200000000000003 11.759959999999998 L 13.200000000000003 11.999959999999998 L 9.320000000000004 11.999959999999998 L 9.320000000000004 31.399959999999997
 L 17.120000000000005 15.839959999999996
 C 17.546680000000006 15.066639999999996 18.013360000000006 14.386659999999996 18.520000000000003 13.799959999999995 C 18.973320000000005 13.293279999999996 19.493320000000004 12.833279999999995 20.080000000000002 12.419959999999996 C 20.66668 12.006639999999997 21.32 11.786639999999997 22.040000000000003 11.759959999999996 C 23.080000000000002 11.759959999999996 23.893300000000004 12.133279999999996 24.480000000000004 12.879959999999997 C 25.040000000000003 13.599959999999998 25.320000000000004 14.599959999999998 25.320000000000004 15.879959999999997 C 25.320000000000004 16.466639999999998 25.106680000000004 16.966659999999997 24.680000000000003 17.379959999999997 C 24.253320000000002 17.793259999999997 23.76 17.999959999999998 23.200000000000003 17.999959999999998 C 22.61332 17.999959999999998 22.113300000000002 17.79328 21.700000000000003 17.379959999999997 C 21.286700000000003 16.966639999999995 21.080000000000002 16.466639999999998 21.080000000000002 15.879959999999997 C 21.080000000000002 15.293279999999996 21.28668 14.793259999999997 21.700000000000003 14.379959999999997
 C 22.113320000000005 13.966659999999997 22.61332 13.759959999999998 23.200000000000003 13.759959999999998
 C 23.573320000000002 13.759959999999998 23.92 13.859959999999997 24.240000000000002 14.059959999999998
 C 24.560000000000002 14.25996 24.81332 14.506639999999999 25.000000000000004 14.799959999999999
 C 24.706680000000002 12.933259999999999 23.720000000000002 11.999959999999998 22.040000000000003 11.999959999999998
 C 21.533320000000003 11.999959999999998 21.046640000000004 12.126639999999998 20.580000000000002 12.379959999999999
 C 20.11336 12.63328 19.680000000000003 12.95328 19.28 13.339959999999998
 C 18.88 13.726639999999996 18.506680000000003 14.153319999999997 18.16 14.619959999999997
 C 17.813319999999997 15.086599999999997 17.52 15.519959999999998 17.28 15.919959999999998
 L 13.32 23.879959999999997 L 25.240000000000002 39.75996 L 29.200000000000003 39.75996 z" stroke-linecap="round" />
</g>
</svg>
